<?xml version="1.0" encoding="UTF-8"?>
<svg xmlns="http://www.w3.org/2000/svg" version="1.1" viewBox="0 0 2474 2500">
  <!-- Generator: Adobe Illustrator 28.7.1, SVG Export Plug-In . SVG Version: 1.2.0 Build 142)  -->
  <g>
    <g id="Layer_1">
      <path d="M2415,1188.8c27.1,60.4,44.3,125,51.3,190.9,6.8,65.9,3.4,132.6-10.7,197.4-13.8,64.9-37.8,127.1-71.1,184.4-21.9,38.3-47.7,74.2-77.4,107.3-29.4,32.8-62.3,62.5-97.9,88.6-35.9,26-74.2,47.9-114.9,65.9-40.4,17.7-82.6,31.3-125.8,40.1-20.3,63-50.5,122.7-89.6,176.3-38.8,53.7-86,100.8-139.6,139.6-53.7,39.1-113,69.3-176.1,89.6-63,20.6-128.9,30.7-195.4,30.7-44,.3-88.3-4.4-131.5-13.3-43-9.1-85.2-22.9-125.5-40.9s-78.7-40.4-114.3-66.4c-35.4-26-68.2-56-97.4-89.1-65.1,14.1-131.8,17.5-197.7,10.7-65.9-7-130.5-24.2-191.2-51.3-60.4-26.8-116.4-63.3-165.7-107.8s-91.2-96.6-124.2-153.9c-22.1-38.3-40.4-78.7-54.2-120.6-13.8-41.9-22.9-85.2-27.6-129.2-4.7-43.8-4.4-88,.3-132.1,4.7-43.8,14.3-87,28.1-128.9-44.3-49.2-80.7-105.2-107.8-165.7-26.8-60.7-44.3-125-51.1-190.9-7-65.9-3.4-132.6,10.4-197.4,13.8-64.9,37.8-127.1,71.1-184.4,21.9-38.3,47.7-74.5,77.1-107.3,29.4-32.8,62.5-62.5,98.2-88.6s74.2-48.2,114.6-65.9c40.6-18,82.8-31.3,126.1-40.1,20.3-63.3,50.5-122.7,89.3-176.3,39.1-53.7,86.2-100.8,139.9-139.9,53.7-38.8,113-69,176.1-89.6C973.8,10.4,1039.7,0,1106.1.3c44-.3,88.3,4.2,131.5,13.3,43.2,9.1,85.4,22.7,125.8,40.6,40.4,18.2,78.7,40.4,114.3,66.4,35.7,26.3,68.5,56,97.7,89.1,64.9-13.8,131.5-17.2,197.4-10.4s130.2,24.2,190.9,51.1c60.4,27.1,116.4,63.3,165.7,107.8,49.2,44.3,91.2,96.1,124.2,153.7,22.1,38,40.4,78.4,54.2,120.6,13.8,41.9,23.2,85.2,27.6,129.2,4.7,44,4.7,88.3-.3,132.3-4.7,44-14.3,87.3-28.1,129.2,44.5,49.2,80.7,105,107.8,165.7h0ZM1547.1,2300.7c56.8-23.4,108.4-58.1,151.9-101.6s78.1-95.1,101.6-152.1c23.4-56.8,35.7-117.7,35.7-179.2v-580.9c-.2-.5-.3-1.1-.5-1.8-.2-.5-.4-1-.8-1.6s-.8-1-1.3-1.3c-.5-.5-1-.9-1.6-1l-210.2-121.4v701.7c0,7-1,14.3-2.9,21.1-1.8,7-4.4,13.5-8.1,19.8s-7.8,12-13,16.9c-5.1,5-10.8,9.4-16.9,13l-497.8,287.3c-4.2,2.6-11.2,6.3-14.8,8.3,20.6,17.5,43,32.8,66.4,46.4,23.7,13.5,48.2,25,73.7,34.4,25.5,9.1,51.8,16.1,78.4,20.8,26.8,4.7,53.9,7,81,7,61.5,0,122.4-12.2,179.2-35.9h0ZM361.7,1906.4c31,53.4,71.9,99.8,120.6,137.3,49,37.5,104.4,64.9,163.8,80.7s121.4,20.1,182.3,12,119.6-27.9,173-58.6l503.2-290.4,1.3-1.3c.3-.3.6-.9.8-1.6.3-.5.6-1,.8-1.6v-244.8l-607.4,351.4c-6.3,3.6-12.8,6.3-19.5,8.3-7,1.8-14.1,2.6-21.4,2.6s-14.1-.8-21.1-2.6c-6.8-2.1-13.5-4.7-19.8-8.3l-497.8-287.6c-4.4-2.6-10.9-6.5-14.6-8.9-4.7,26.8-7,53.9-7,81s2.6,54.2,7.3,81c4.7,26.6,12,52.9,21.1,78.4,9.4,25.5,20.8,50,34.4,73.5v-.5ZM230.9,820.2c-30.7,53.4-50.5,112.3-58.6,173.2s-3.9,122.7,12,182.3c15.9,59.4,43.2,114.9,80.7,163.8,37.5,48.7,84.1,89.6,137.3,120.3l503,290.7c.5.2,1.1.3,1.8.5h1.8c.7,0,1.3-.2,1.8-.5.5-.2,1-.4,1.6-.8l211-121.9-607.4-350.6c-6-3.6-11.7-8.1-16.9-13-5-5.1-9.4-10.8-13-16.9-3.4-6.3-6.3-12.8-8.1-19.8-1.8-6.8-2.9-13.8-2.6-21.1v-591.5c-25.5,9.4-50.3,20.8-73.7,34.4-23.4,13.8-45.6,29.4-66.4,46.9-20.6,17.5-39.9,36.7-57.3,57.6-17.5,20.6-32.8,43-46.4,66.4h-.5ZM1958.6,1222.4c6.3,3.6,12,7.8,17.2,13,4.9,4.9,9.4,10.7,13,16.9,3.4,6.3,6.3,13,8.1,19.8,1.6,7,2.6,14.1,2.3,21.4v591.5c83.6-30.7,156.5-84.7,210.5-155.5,54.2-70.8,86.7-155.5,94.3-244.1s-10.2-177.6-51.3-256.6-103.9-144.6-181-188.8l-503-290.7c-.5-.2-1.1-.3-1.8-.5h-1.8c-.5.2-1.1.3-1.8.5-.5.2-1,.4-1.6.8l-209.9,121.4,607.4,350.9h-.5ZM2168.3,907.2h-.3v.3l.3-.3ZM2168.1,907c15.1-87.5,4.9-177.6-29.4-259.7-34.1-82-91.2-152.6-164.1-203.7-72.9-50.8-158.9-80-247.7-83.9-89.1-3.6-177.1,18-254.2,62.3l-503,290.4c-.5.3-1,.8-1.3,1.3l-1,1.6c-.2.5-.3,1.1-.5,1.8-.2.5-.3,1.1-.3,1.8v242.8l607.4-350.9c6.3-3.6,13-6.3,19.8-8.3,7-1.8,14.1-2.6,21.1-2.6s14.3.8,21.4,2.6c6.8,2.1,13.3,4.7,19.5,8.3l497.8,287.6c4.4,2.6,10.9,6.3,14.6,8.6ZM851.9,638.2c0-7,1-14.1,2.9-21.1,1.8-6.8,4.4-13.5,8.1-19.8,3.6-6,7.8-11.7,13-16.9s10.7-9.4,16.9-12.8l497.8-287.3c4.7-2.9,11.2-6.5,14.8-8.3-68.2-57-151.6-93.5-239.9-104.7-88.3-11.5-177.9,2.6-258.4,40.4-80.7,37.8-149,97.9-196.7,173-47.7,75.3-72.9,162.3-72.9,251.4v580.9c.2.7.3,1.3.5,1.8.2.5.4,1,.8,1.6s.8,1,1.3,1.6c.3.3.9.7,1.6,1l210.2,121.4v-702ZM966,1405.8l270.6,156.3,270.6-156.3v-312.3l-270.4-156.3-270.6,156.3-.3,312.3Z"/>
    </g>
  </g>
</svg>